<svg id="Capa_1" enable-background="new 0 0 512 512" height="512" viewBox="0 0 512 512" width="512" xmlns="http://www.w3.org/2000/svg"><g><path d="m484.114 386.358c-5.646-4.684-12.032-8.627-18.963-11.813 8.932-10.369 14.351-23.847 14.351-38.575 0-32.641-26.555-59.195-59.195-59.195s-59.195 26.555-59.195 59.195c0 14.728 5.418 28.205 14.351 38.574-6.932 3.186-13.319 7.13-18.965 11.814-2.753 2.284-5.306 4.736-7.674 7.323-10.589-7.324-22.484-13.242-35.339-17.641 19.908-16.539 32.607-41.471 32.607-69.314 0-49.676-40.415-90.091-90.093-90.091-49.676 0-90.091 40.415-90.091 90.091 0 27.843 12.698 52.775 32.606 69.314-12.855 4.398-24.751 10.317-35.34 17.641-2.365-2.589-4.92-5.039-7.673-7.324-5.646-4.684-12.032-8.627-18.964-11.813 8.932-10.369 14.351-23.847 14.351-38.575 0-32.641-26.555-59.195-59.195-59.195s-59.195 26.556-59.195 59.196c0 14.728 5.419 28.205 14.351 38.574-6.932 3.186-13.319 7.13-18.965 11.814-17.982 14.921-27.884 36.601-27.884 61.049v64.593h512v-64.593c0-24.448-9.903-46.128-27.886-61.049zm-63.807-79.583c16.099 0 29.195 13.097 29.195 29.195s-13.097 29.195-29.195 29.195-29.195-13.097-29.195-29.195 13.096-29.195 29.195-29.195zm-164.308-60.139c33.136 0 60.093 26.957 60.093 60.091s-26.957 60.091-60.093 60.091c-33.134 0-60.091-26.957-60.091-60.091s26.957-60.091 60.091-60.091zm-164.306 60.139c16.099 0 29.195 13.097 29.195 29.195s-13.097 29.195-29.195 29.195-29.195-13.097-29.195-29.195 13.097-29.195 29.195-29.195zm-61.693 175.225v-34.593c0-36.088 30.984-52.241 61.692-52.241 18.501 0 37.086 5.876 48.943 18.436-16.728 18.866-26.676 42.077-29.261 68.398zm111.552 0c7.381-58.707 61.137-85.182 114.446-85.182 53.311 0 107.069 26.475 114.45 85.182zm340.448 0h-81.374c-2.586-26.323-12.536-49.535-29.267-68.403 11.861-12.556 30.447-18.432 48.947-18.432 30.709 0 61.694 16.153 61.694 52.241z"/><path d="m184.939 190.133 16.145 9.822 54.916-28.871 54.894 28.858 16.172-9.784-10.783-62.873 44.089-42.976-3.434-18.637-63.681-9.253-27.847-56.419h-18.82l-27.847 56.42-63.681 9.253-3.434 18.637 44.089 42.976zm53.726-106.292 17.335-35.123 17.335 35.124 38.761 5.632-28.048 27.34 6.621 38.604-34.669-18.227-34.669 18.226 6.621-38.604-28.048-27.34z"/><path d="m34.84 244.658 17.512 6.926 33.792-25.969 40.461 13.084 14.293-12.279-14.856-41.851 24.684-34.072-6.447-17.767-44.943 1.212-25.645-35.192-18.468 3.336-12.292 41.61-42.634 13.918-.286 18.882 34.769 23.857zm32.394-77.337 5.568-18.849 11.574 15.884 19.646-.53-11.53 15.916 6.575 18.522-18.699-6.047-15.583 11.976-.027-19.654-16.206-11.12z"/><path d="m371.103 226.42 14.293 12.279 40.461-13.084 33.792 25.969 17.512-6.926.061-44.305 34.769-23.857-.286-18.882-42.635-13.917-12.292-41.61-18.468-3.336-25.643 35.193-44.943-1.212-6.447 17.767 24.684 34.072zm56.52-62.064 11.574-15.884 5.568 18.849 18.683 6.098-16.206 11.12-.027 19.654-15.583-11.976-18.699 6.047 6.575-18.522-11.53-15.916z"/></g></svg>