<svg id="Layer_5" enable-background="new 0 0 64 64" height="512" viewBox="0 0 64 64" width="512" xmlns="http://www.w3.org/2000/svg"><g><path d="m53 31.274v-.274-1-1.307l.863-.323c4.269-1.601 7.137-5.74 7.137-10.3v-10.07c0-3.859-3.141-7-7-7h-12c-3.519 0-6.432 2.614-6.92 6h-1.08c-1.654 0-3 1.346-3 3s1.346 3 3 3h3v1.395c0 .198-.058.39-.168.555l-1.298 1.948c-.349.522-.534 1.13-.534 1.759 0 1.209.672 2.296 1.755 2.839l.245.122v2.382c0 2.757 2.243 5 5 5h3v5.189c-1.145.822-2.196 1.762-3.144 2.811h-15.856c-.552 0-1-.448-1-1 0-1.654-1.346-3-3-3h-1v-2.08l6.03-1.623c.145.961.969 1.703 1.97 1.703h2c1.103 0 2-.897 2-2v-10c0-1.103-.897-2-2-2h-2c-1.001 0-1.825.742-1.97 1.703l-26.03-7.008v24.609l14-3.769v2.606c-1.721.447-3 1.999-3 3.858s1.279 3.411 3 3.858v1.143c0 1.654 1.346 3 3 3s3-1.346 3-3v-.284c1.742.841 3.649 1.284 5.605 1.284h6.395v18h15v-.037c.208.011.415.037.623.037h2.268c2.889 0 5.688-1.035 7.88-2.915 2.688-2.304 4.229-5.654 4.229-9.194v-5.45c0-6.44-3.988-12.042-10-14.167zm-24-12.274h2v10l-2 .002zm24.161 7.497-.161.06v-2.057l2.268-1.7c1.085-.815 1.732-2.111 1.732-3.467 0-2.277-1.766-4.149-4-4.32v-2.013h6v5.07c0 3.731-2.347 7.118-5.839 8.427zm-11.161-23.497h12c2.757 0 5 2.243 5 5v3h-8.101c-.464-2.279-2.484-4-4.899-4h-8.899c.465-2.279 2.485-4 4.899-4zm-9 7c0-.552.448-1 1-1h12c1.304 0 2.416.836 2.829 2h-14.829c-.552 0-1-.448-1-1zm9 17c-1.302 0-2.402-.839-2.816-2h1.816c2.206 0 4-1.794 4-4h-2c0 1.103-.897 2-2 2h-2v-1.382c0-.764-.424-1.449-1.107-1.79l-.245-.122c-.4-.2-.648-.602-.648-1.049 0-.231.068-.456.197-.649l1.299-1.949c.33-.494.504-1.07.504-1.664v-1.395h12v4h1.667c1.286 0 2.333 1.047 2.333 2.333 0 .73-.349 1.429-.933 1.867l-3.067 2.3v6.5 1 .264c-1.403.411-2.741.968-4 1.661v-5.925zm9.981 6.05c5.404 1.747 9.019 6.686 9.019 12.39v2.56h-4v-4h-2v5.088c0 1.07-.291 2.12-.846 3.045-1.061 1.768-3.001 2.867-5.063 2.867-.031 0-.06-.006-.091-.007v-13.993h-7.66c2.387-3.912 6.177-6.76 10.641-7.95zm-24.981-5.817-18 4.847v-16.16l18 4.846zm-24-12.928 4 1.077v17.237l-4 1.077zm16 17.154v1.726c-.953.34-1.685 1.141-1.916 2.139-.027-.017-.056-.029-.084-.045v-3.281zm-5 7.541c0-1.103.897-2 2-2l.002 4h-.002c-1.103 0-2-.897-2-2zm5 5c0 .552-.448 1-1 1s-1-.448-1-1v-1.278c.595-.347 1-.985 1-1.722v-2.777c.29.261.625.473 1 .606zm7.605-1c-1.985 0-3.911-.541-5.605-1.558v-4.442h-1c-.552 0-1-.448-1-1s.448-1 1-1h2c.552 0 1 .448 1 1 0 1.654 1.346 3 3 3h14.269c-.443.64-.852 1.305-1.221 2h-6.048v2zm8.395 0h12v11.602c-.412-.156-.813-.345-1.185-.593l-.487-.325c-.671-.448-1.451-.684-2.258-.684-2.244 0-4.07 1.826-4.07 4.103 0 1.551.862 2.946 2.25 3.641l.514.256h-6.764zm22.469 15.566c-1.83 1.57-4.166 2.434-6.578 2.434h-2.268c-1.562 0-3.125-.369-4.521-1.067l-1.957-.979c-.707-.353-1.145-1.062-1.145-1.884 0-1.142.929-2.07 2.07-2.07.41 0 .808.12 1.148.348l.487.325c1.304.868 2.819 1.327 4.386 1.327 2.761 0 5.358-1.471 6.782-3.846.58-.965.936-2.042 1.065-3.154h4.062v.891c0 2.955-1.287 5.753-3.531 7.675z"/><circle cx="42" cy="16" r="1"/><path d="m37 45h8v2h-8z"/><path d="m37 49h8v2h-8z"/></g></svg>